<?xml version="1.0" encoding="utf-8"?>
<!-- Generator: Adobe Illustrator 26.5.0, SVG Export Plug-In . SVG Version: 6.00 Build 0)  -->
<svg version="1.1" id="レイヤー_1" xmlns="http://www.w3.org/2000/svg" xmlns:xlink="http://www.w3.org/1999/xlink" x="0px"
	 y="0px" viewBox="0 0 179.37 88.18" style="enable-background:new 0 0 179.37 88.18;" xml:space="preserve">
<!-- <style type="text/css">
	.st0{fill:#13A566;}
</style> -->
<g>
	<path class="st0" d="M76.37,82.29c-20.51,2.12-18.84-19.35-18.84-19.35V24.76c0,0-1.67-39.34-57.53-18.84
		C20.51,3.8,19.09,25.01,19.09,25.01v38.18C19.09,63.2,20.51,102.79,76.37,82.29"/>
	<path class="st0" d="M128.37,82.29c-20.51,2.12-18.84-19.35-18.84-19.35V24.76c0,0-1.67-39.34-57.53-18.84
		C72.51,3.8,71.09,25.01,71.09,25.01v38.18C71.09,63.2,72.51,102.79,128.37,82.29"/>
	<path class="st0" d="M179.37,82.29c-20.51,2.12-18.84-19.35-18.84-19.35V24.76c0,0-1.67-39.34-57.53-18.84
		c20.51-2.12,19.09,19.09,19.09,19.09v38.18C122.09,63.2,123.51,102.79,179.37,82.29"/>
</g>
</svg>
