<?xml version="1.0" encoding="UTF-8"?><svg id="_レイヤー_2" xmlns="http://www.w3.org/2000/svg" viewBox="0 0 252.36 280"><defs><style>.cls-1{fill:#232323;}</style></defs><g id="_レイヤー_1-2"><path class="cls-1" d="m126.16,0c.78.76,1.54,1.51,2.29,2.27,35.65,35.68,45.87,89.54,26.53,136.13l-24.75,59.62c-6.08,14.64-9.53,30.28-9.74,46.13-.15,11.09,1.19,23.61,5.66,35.86h-.12c-.78-.76-1.54-1.51-2.29-2.27-35.65-35.68-45.87-89.54-26.53-136.13l24.75-59.62c6.08-14.64,9.53-30.28,9.74-46.13.15-11.09-1.19-23.61-5.66-35.86"/><path class="cls-1" d="m225.36,42.58c.55.53,1.08,1.06,1.61,1.59,25.03,25.06,32.21,62.88,18.63,95.59l-17.38,41.86c-4.27,10.28-6.69,21.26-6.84,32.39-.1,7.79.84,16.58,3.97,25.18h-.09c-.55-.53-1.08-1.06-1.61-1.59-25.03-25.06-32.21-62.88-18.63-95.59l17.38-41.86c4.27-10.28,6.69-21.26,6.84-32.39.1-7.79-.84-16.58-3.97-25.18"/><path class="cls-1" d="m27.09,42.58c.55.53,1.08,1.06,1.61,1.59,25.03,25.06,32.21,62.88,18.63,95.59l-17.38,41.86c-4.27,10.28-6.69,21.26-6.84,32.39-.1,7.79.84,16.58,3.97,25.18h-.09c-.55-.53-1.08-1.06-1.61-1.59C.37,212.55-6.81,174.73,6.77,142.02l17.38-41.86c4.27-10.28,6.69-21.26,6.84-32.39.1-7.79-.84-16.58-3.97-25.18"/></g></svg>